<svg width="612.02" height="612.02" xmlns="http://www.w3.org/2000/svg">
 <g>
  <title>background</title>
  <rect x="-1" y="-1" width="614.02" height="614.02" id="canvas_background" fill="none"/>
 </g>

 <g>
  <title>Layer 1</title>
  <g id="svg_1">
   <g id="_x35__11_">
    <g id="svg_2">
     <path stroke="#000000" d="m597.038002,269.659l-254.579,-254.58c-20.079,-20.079 -52.644,-20.079 -72.723,0c-20.079,20.079 -20.079,52.644 0,72.723l218.194,218.193l-218.194,218.192c-20.079,20.079 -20.079,52.644 0,72.723s52.644,20.079 72.723,0l254.579,-254.579c20.079,-20.029 20.079,-52.593 0,-72.672zm-306.102,-15.416l-202.114,-213.02c-20.309,-21.378 -53.204,-21.378 -73.513,0s-20.309,56.058 0,77.462l165.371,174.289l-165.371,174.289c-20.309,21.379 -20.309,56.083 0,77.462s53.204,21.379 73.513,0l202.114,-213.02c20.309,-21.378 20.309,-56.058 0,-77.462z" id="svg_3" fill="#ffffff"/>
    </g>
   </g>
  </g>
  <g id="svg_4"/>
  <g id="svg_5"/>
  <g id="svg_6"/>
  <g id="svg_7"/>
  <g id="svg_8"/>
  <g id="svg_9"/>
  <g id="svg_10"/>
  <g id="svg_11"/>
  <g id="svg_12"/>
  <g id="svg_13"/>
  <g id="svg_14"/>
  <g id="svg_15"/>
  <g id="svg_16"/>
  <g id="svg_17"/>
  <g id="svg_18"/>
 </g>
</svg>